<svg xmlns="http://www.w3.org/2000/svg" width="37.94" height="32.07" viewBox="0 0 37.94 32.07">
  <g id="Group_754" data-name="Group 754" transform="translate(-6449.596 13072)">
    <path id="path" d="M3,24.5H30.749V21.416H3V24.5Zm0-7.708H30.749V13.708H3v3.083ZM3,6V9.083H30.749V6Z" transform="translate(6452 -13078)" fill-rule="evenodd" opacity="0.54"/>
    <path id="Path_2481" data-name="Path 2481" d="M11.774-9.8V0H10.78V-7.84L6.93-1.246H6.44L2.59-7.8V0H1.6V-9.8H2.45L6.706-2.534,10.92-9.8Zm9.464,6.426h-6.16a2.632,2.632,0,0,0,.882,1.855,2.928,2.928,0,0,0,2.016.707,3.177,3.177,0,0,0,1.26-.245,2.752,2.752,0,0,0,.994-.721l.56.644a3.153,3.153,0,0,1-1.225.9A4.143,4.143,0,0,1,17.948.07a4.088,4.088,0,0,1-2.009-.483A3.482,3.482,0,0,1,14.574-1.75a3.812,3.812,0,0,1-.49-1.932,3.947,3.947,0,0,1,.469-1.932,3.4,3.4,0,0,1,1.288-1.33,3.6,3.6,0,0,1,1.841-.476,3.558,3.558,0,0,1,1.834.476A3.374,3.374,0,0,1,20.79-5.621a3.984,3.984,0,0,1,.462,1.939ZM17.682-6.566a2.5,2.5,0,0,0-1.785.679,2.667,2.667,0,0,0-.819,1.771H20.3a2.667,2.667,0,0,0-.819-1.771A2.522,2.522,0,0,0,17.682-6.566ZM27.1-7.42a3.009,3.009,0,0,1,2.2.805,3.144,3.144,0,0,1,.819,2.345V0h-.994V-4.172a2.441,2.441,0,0,0-.574-1.75,2.156,2.156,0,0,0-1.638-.6,2.516,2.516,0,0,0-1.883.707,2.67,2.67,0,0,0-.693,1.953V0h-.994V-7.364H24.3v1.358a2.765,2.765,0,0,1,1.127-1.043A3.607,3.607,0,0,1,27.1-7.42Zm12.432.056V0h-.952V-1.344A2.726,2.726,0,0,1,37.506-.3,3.244,3.244,0,0,1,35.938.07a3.136,3.136,0,0,1-2.275-.805,3.133,3.133,0,0,1-.833-2.359v-4.27h.994v4.172A2.462,2.462,0,0,0,34.4-1.428a2.156,2.156,0,0,0,1.638.6,2.41,2.41,0,0,0,1.834-.707A2.74,2.74,0,0,0,38.542-3.5V-7.364Z" transform="translate(6448 -13040)" opacity="0.54"/>
  </g>
</svg>
