<svg xmlns="http://www.w3.org/2000/svg" width="27" height="19" viewBox="0 0 27 19">
  <path id="Path_65" data-name="Path 65" d="M26.156-11.3a.937.937,0,0,1,.606.191.6.6,0,0,1,.237.488v.679a.6.6,0,0,1-.237.488.937.937,0,0,1-.606.191H15.187V-8.25a.6.6,0,0,1-.237.488.937.937,0,0,1-.606.191H12.656a.937.937,0,0,1-.606-.191.6.6,0,0,1-.237-.488V-9.268H.844a.937.937,0,0,1-.606-.191A.6.6,0,0,1,0-9.946v-.679a.6.6,0,0,1,.237-.488A.937.937,0,0,1,.844-11.3H11.813v-1.018a.6.6,0,0,1,.237-.488A.937.937,0,0,1,12.656-13h1.688a.937.937,0,0,1,.606.191.6.6,0,0,1,.237.488V-11.3Zm0,13.571a.937.937,0,0,1,.606.191A.6.6,0,0,1,27,2.946v.679a.6.6,0,0,1-.237.488.937.937,0,0,1-.606.191H8.438V5.321a.6.6,0,0,1-.237.488A.937.937,0,0,1,7.594,6H5.906A.937.937,0,0,1,5.3,5.809a.6.6,0,0,1-.237-.488V4.3H.844a.937.937,0,0,1-.606-.191A.6.6,0,0,1,0,3.625V2.946a.6.6,0,0,1,.237-.488.937.937,0,0,1,.606-.191H5.063V1.25A.6.6,0,0,1,5.3.762.937.937,0,0,1,5.906.571H7.594A.937.937,0,0,1,8.2.762a.6.6,0,0,1,.237.488V2.268Zm0-6.786a.937.937,0,0,1,.606.191A.6.6,0,0,1,27-3.839v.679a.6.6,0,0,1-.237.488.937.937,0,0,1-.606.191H21.938v1.018a.6.6,0,0,1-.237.488.937.937,0,0,1-.606.191H19.406A.937.937,0,0,1,18.8-.977a.6.6,0,0,1-.237-.488V-2.482H.844a.937.937,0,0,1-.606-.191A.6.6,0,0,1,0-3.161v-.679a.6.6,0,0,1,.237-.488.937.937,0,0,1,.606-.191H18.563V-5.536a.6.6,0,0,1,.237-.488.937.937,0,0,1,.606-.191h1.688a.937.937,0,0,1,.606.191.6.6,0,0,1,.237.488v1.018Z" transform="translate(0 13)" fill="#fff"/>
</svg>
