<svg id="Component_29_1" data-name="Component 29 – 1" xmlns="http://www.w3.org/2000/svg" width="686.5" height="295.2" viewBox="0 0 686.5 295.2">
  <path id="Path_2513" data-name="Path 2513" d="M136.5,423a46.264,46.264,0,0,1-2.8,9,25.435,25.435,0,0,1-4.7,6.4,32.131,32.131,0,0,1-4.1,3.4,26.849,26.849,0,0,1-6.4,3.1,21.953,21.953,0,0,1-6.8,1c-1.1,0-2.3-.1-3.5-.2a25.892,25.892,0,0,1-10.3-3.1,26.519,26.519,0,0,1-3.7-2.5,24.135,24.135,0,0,1-3.2-3.2,29.77,29.77,0,0,1-4.8-8,26.681,26.681,0,0,1-1.5-9.3,23.814,23.814,0,0,1,3.9-13.3,19.549,19.549,0,0,1,2.8-3.5,28.7,28.7,0,0,1,4.7-4.1,21.078,21.078,0,0,1,4.9-2.6,23.772,23.772,0,0,1,5-1.5,24.872,24.872,0,0,1,4.6-.5,16.047,16.047,0,0,1,8,1.9l1-.9,10.9,5.8-11.2,11.9-.8-.5-1.3-.6a15.18,15.18,0,0,0-3.6-1.2,15.867,15.867,0,0,0-2.9-.3,10.079,10.079,0,0,0-5.5,1.5,10.386,10.386,0,0,0-3.7,4.3c-.3.6-.4.9-.5,1.1a6.648,6.648,0,0,0-.3,2.1c0,.4-.1.9-.1,1.5a9.167,9.167,0,0,0,3,6.9,8.882,8.882,0,0,0,4.2,2.5,20.9,20.9,0,0,0,3.8.5,8.051,8.051,0,0,0,4.8-1.5,9.016,9.016,0,0,0,1-.9c.3-.3.6-.7,1-1.2h-8.1l3.4-12.9H137l.1,1,.1,1.2a39.436,39.436,0,0,1-.7,6.7m25.8.4-1.4-.2a5.516,5.516,0,0,0-3.1.7c-1.2.6-2,2-2.5,4.3l-.1,1V445H141.1V422.2h-3.5l3.5-13.8h14.1v3.5c1.5-1.9,3.9-3.2,7.1-4a18.92,18.92,0,0,1,3.1-.3h1.1Zm42.8,21.7H190.6v-5.2l-3.1,5.2h-1.7a21.575,21.575,0,0,1-10.6-2.4,18.849,18.849,0,0,1-5.1-4.3A17.927,17.927,0,0,1,166,427a28.687,28.687,0,0,1,.3-3.8,21.173,21.173,0,0,1,2.7-7.6,15.292,15.292,0,0,1,5.3-5.1,16.671,16.671,0,0,1,3.5-1.8,16.046,16.046,0,0,1,2.8-.7c.7,0,1.3-.1,1.8-.1s.9-.1,1.4-.1a13.611,13.611,0,0,1,8.1,2.4l.6-1.7h12.6v22.4h3.5Zm-14.5-20a3.989,3.989,0,0,0-2.9-3.5c-.7-.1-1.3-.2-1.5-.2a4.957,4.957,0,0,0-2.6.8l-1,.9a4.377,4.377,0,0,0-1.3,3.2,4.3,4.3,0,0,0,2.4,4c.9.5,2.8.7,5.8.7h1.3v-5.9ZM246.8,445H232.3V425.1c0-1.9-1.4-2.9-4.3-2.9h-1.3l-1,.1V445H211.2V407h-3.5l3.8-14h14.2v21l2.9-5.6h8.5a9.23,9.23,0,0,1,4.8,1.4,9.026,9.026,0,0,1,3.3,3.1,14.114,14.114,0,0,1,1.5,5l.1,1.2V431h3.5Zm43.1.1H275.4v-5.2l-3.1,5.2h-1.7a21.575,21.575,0,0,1-10.6-2.4,18.849,18.849,0,0,1-5.1-4.3,17.927,17.927,0,0,1-4.1-11.4,28.687,28.687,0,0,1,.3-3.8,21.173,21.173,0,0,1,2.7-7.6,15.292,15.292,0,0,1,5.3-5.1,16.671,16.671,0,0,1,3.5-1.8,16.046,16.046,0,0,1,2.8-.7c.7,0,1.3-.1,1.8-.1s.9-.1,1.4-.1a13.611,13.611,0,0,1,8.1,2.4l.6-1.7h12.6v22.4h3.5Zm-14.5-20a3.989,3.989,0,0,0-2.9-3.5c-.7-.1-1.3-.2-1.5-.2a4.957,4.957,0,0,0-2.6.8l-1,.9a4.377,4.377,0,0,0-1.3,3.2,4.3,4.3,0,0,0,2.4,4c.9.5,2.8.7,5.8.7h1.3v-5.9ZM352.2,445h-14V425.3c0-2.2-1.5-3.3-4.6-3.3h-1.5l-1,.3V445h-14V425.3a2.4,2.4,0,0,0-.6-1.5,5.556,5.556,0,0,0-1.6-1.4,4.751,4.751,0,0,0-2.4-.6,12.765,12.765,0,0,0-1.7.2l-.8.3V445H296V421.8h-3.5l3.5-13.3h14v6.7l2.9-6.7h8.8a9.574,9.574,0,0,1,5.9,2.4,14.274,14.274,0,0,1,2.7,3.1,8.794,8.794,0,0,1,.6,1,2.388,2.388,0,0,1,.3.7l3.2-7.2h7.7a12.053,12.053,0,0,1,4.7.8,8.284,8.284,0,0,1,3.3,3,11.461,11.461,0,0,1,1.7,4,13,13,0,0,1,.4,2.8V431h3.5Zm75.5,0H411.4l-5.3-21.2L400.8,445H384.4l-10.1-50h15.3l4.1,21.6,5.6-21.6h12.9l5.8,21.3,3.8-21.3h15.3Zm48.6.1H461.8v-5.2l-3.1,5.2H457a21.575,21.575,0,0,1-10.6-2.4,18.849,18.849,0,0,1-5.1-4.3,17.927,17.927,0,0,1-4.1-11.4,28.689,28.689,0,0,1,.3-3.8,21.173,21.173,0,0,1,2.7-7.6,15.292,15.292,0,0,1,5.3-5.1,16.671,16.671,0,0,1,3.5-1.8,16.046,16.046,0,0,1,2.8-.7c.7,0,1.3-.1,1.8-.1s.9-.1,1.4-.1a13.611,13.611,0,0,1,8.1,2.4l.6-1.7h12.6v22.4h3.5Zm-14.5-20a3.989,3.989,0,0,0-2.9-3.5c-.7-.1-1.3-.2-1.5-.2a4.957,4.957,0,0,0-2.6.8l-1,.9a4.377,4.377,0,0,0-1.3,3.2,4.3,4.3,0,0,0,2.4,4c.9.5,2.8.7,5.8.7H462v-5.9ZM496.9,445H482.4V407h-3.5l4.5-14h13.5v38h3.5Zm27.1,0-6.5-14.5V445H503V407h-3.5l3.5-14h14.5v26.5l5.5-11h15.3L529.5,425,540,445Zm32-15.3a5.73,5.73,0,0,0,2.5,2.6,12.252,12.252,0,0,0,4.7,1.2c.2,0,.5.1.7.1h.8a46.606,46.606,0,0,0,9.3-1.3l1.9-.5-3.3,12.8-2.8.4a46.352,46.352,0,0,1-6.3.4c-7.3,0-13.1-1.7-17.2-5.2a16.833,16.833,0,0,1-6.3-13.6,9.725,9.725,0,0,1,.1-1.8,12.638,12.638,0,0,1,.3-2.1,19.5,19.5,0,0,1,2-5.9c2.9-5.3,7.4-8.2,13.7-8.9a7.6,7.6,0,0,0,1.4-.1c.5,0,1.1-.1,1.6-.1a17.428,17.428,0,0,1,5.9.9,18.544,18.544,0,0,1,9.2,6.5,20.219,20.219,0,0,1,3.8,12.3l.1,2.3H556Zm1.7-11.6a4.559,4.559,0,0,0-2.7,1.5,4.271,4.271,0,0,0-1,2.9h9.1a4.44,4.44,0,0,0-4.5-4.5A3.444,3.444,0,0,1,557.7,418.1Zm45,5.3-1.4-.2a5.516,5.516,0,0,0-3.1.7c-1.2.6-2,2-2.5,4.3l-.1,1V445H581.5V422.2H578l3.5-13.8h14.1v3.5c1.5-1.9,3.9-3.2,7.1-4a18.92,18.92,0,0,1,3.1-.3h1.1Zm60.7-9.6-2-1.5q-4.65-3-8.1-3a9.034,9.034,0,0,0-2.8.4,9.671,9.671,0,0,0-4.2,2.4c-2.3,2.3-3.5,4.7-3.5,7.3a10.512,10.512,0,0,0,.6,3.3,10.264,10.264,0,0,0,6.7,6.6,8.533,8.533,0,0,0,3.1.6c2.9,0,5.9-1.3,9-4l1.1-1,6.9,14.3a20.647,20.647,0,0,1-6.6,4.2,26.718,26.718,0,0,1-8.2,2.1c-.5,0-.9.1-1.3.1h-1a30.689,30.689,0,0,1-14.4-4.2,25.4,25.4,0,0,1-4.5-3.6,28.958,28.958,0,0,1-4.5-5.6,24.549,24.549,0,0,1-2.4-6.5c-.2-1-.4-2-.6-3.1-.1-1-.2-2-.2-2.8,0-.7.1-1.6.2-2.7a19.847,19.847,0,0,1,.6-3.2,21.911,21.911,0,0,1,2.4-6.4,23.949,23.949,0,0,1,8.3-9.3c.6-.4,1.4-.8,2.1-1.3a24.036,24.036,0,0,1,2.3-1.1,23.7,23.7,0,0,1,9.2-1.9c1.2,0,2.5.1,3.9.2l1.7.3,1-1.7,12.6,4.8Zm48.4,31.3H697.3v-5.2l-3.1,5.2h-1.7a21.575,21.575,0,0,1-10.6-2.4,18.849,18.849,0,0,1-5.1-4.3,17.927,17.927,0,0,1-4.1-11.4,28.684,28.684,0,0,1,.3-3.8,21.173,21.173,0,0,1,2.7-7.6,15.292,15.292,0,0,1,5.3-5.1,16.672,16.672,0,0,1,3.5-1.8,16.046,16.046,0,0,1,2.8-.7c.7,0,1.3-.1,1.8-.1s.9-.1,1.4-.1a13.611,13.611,0,0,1,8.1,2.4l.6-1.7h12.6v22.4h3.5Zm-14.5-20a3.989,3.989,0,0,0-2.9-3.5c-.7-.1-1.3-.2-1.5-.2a4.956,4.956,0,0,0-2.6.8l-1,.9a4.377,4.377,0,0,0-1.3,3.2,4.3,4.3,0,0,0,2.4,4c.9.5,2.8.7,5.8.7h1.3v-5.9Zm41.8-1.7-1.4-.2a5.516,5.516,0,0,0-3.1.7c-1.2.6-2,2-2.5,4.3l-.1,1V445H717.9V422.2h-3.5l3.5-13.8H732v3.5c1.5-1.9,3.9-3.2,7.1-4a18.92,18.92,0,0,1,3.1-.3h1.1Zm21.4,22a18.633,18.633,0,0,1-3.6.3A36.655,36.655,0,0,1,747,444l-1.5-.5-1.2-.4-1.2-.4,3-11.7,1.7,1,1.2.7.6.3.8.3a14.165,14.165,0,0,0,2.2.7,7.978,7.978,0,0,0,1.6.3,2.456,2.456,0,0,0,1.5-.5,1.457,1.457,0,0,0,.7-1.3,1.389,1.389,0,0,0-.5-1l-1.7-.8-4.2-1.3c-4.5-1.4-6.8-4.3-6.8-8.8a8.118,8.118,0,0,1,.1-1.7,13.624,13.624,0,0,1,.4-2,11,11,0,0,1,2.6-4.9,12.652,12.652,0,0,1,5.1-3.1,15.161,15.161,0,0,1,5.1-.8,25.423,25.423,0,0,1,4.1.3,23.806,23.806,0,0,1,4.3,1.2,30.157,30.157,0,0,1,4.8,2.3l-3.4,10.8a29.7,29.7,0,0,0-2.9-1.8,14.468,14.468,0,0,0-3.8-1.1,1.5,1.5,0,0,0-1.1.4,1.425,1.425,0,0,0-.6,1.2,1.284,1.284,0,0,0,.4,1l.6.3,5.7,2,1.5.7a9.059,9.059,0,0,1,5.1,8.3,12.649,12.649,0,0,1-.3,2.8,10.521,10.521,0,0,1-3.3,5.9A16.164,16.164,0,0,1,760.5,445.4Z" transform="translate(-84.7 -150.7)" fill="#fff"/>
  <path id="Path_2514" data-name="Path 2514" d="M322.5,150.7H532.7A105.16,105.16,0,0,1,637.5,255.5h0A105.16,105.16,0,0,1,532.7,360.3H322.5A105.16,105.16,0,0,1,217.7,255.5h0A105.16,105.16,0,0,1,322.5,150.7m210.2,6.6H322.5a98.33,98.33,0,0,0-98.1,98.1h0a98.33,98.33,0,0,0,98.1,98.1H532.7a98.33,98.33,0,0,0,98.1-98.1h0a98.33,98.33,0,0,0-98.1-98.1Zm21.2,179.1H502.3l-16.8-67.3-16.8,67.3H416.6l-8.2-40.6a79.461,79.461,0,0,1-14.5,19.4,93.08,93.08,0,0,1-13,10.8,86.878,86.878,0,0,1-20.4,9.9,70.38,70.38,0,0,1-21.7,3.3,84.426,84.426,0,0,1-11-.7,77.97,77.97,0,0,1-54.8-28A85.917,85.917,0,0,1,257.8,285c-3.1-8.5-4.6-18.4-4.6-29.7a74.85,74.85,0,0,1,12.4-42.2,70.9,70.9,0,0,1,9-11.3,92.446,92.446,0,0,1,15-13.1,73.825,73.825,0,0,1,15.6-8.4,90.959,90.959,0,0,1,15.8-4.7,77,77,0,0,1,14.6-1.5,51.374,51.374,0,0,1,25.4,6.2l3.1-2.9,23,12.2-2.5-12.2h48.8l13,68.6,17.9-68.6h41.1l18.3,67.5,11.9-67.5h48.6ZM396.7,237.9,390,204.8l-27,28.6-2.6-1.5-4.2-2a57.828,57.828,0,0,0-11.5-3.9,46.142,46.142,0,0,0-9.3-1,31.158,31.158,0,0,0-17.5,4.9,31.736,31.736,0,0,0-11.8,13.7,17.027,17.027,0,0,0-1.5,3.5,20.764,20.764,0,0,0-1.1,6.6c-.1,1.2-.2,2.8-.2,4.9a30.057,30.057,0,0,0,9.5,22.1q6.45,6.45,13.5,8.1a55.309,55.309,0,0,0,12.1,1.7,24.679,24.679,0,0,0,15.2-4.9,22.057,22.057,0,0,0,3.2-2.9,48.4,48.4,0,0,0,3.2-3.8H334.4l10.8-41.1h51.5Z" transform="translate(-84.7 -150.7)" fill="#fff"/>
</svg>
