<svg xmlns="http://www.w3.org/2000/svg" width="30" height="26" viewBox="0 0 30 26">
  <path id="Heart_Outline" data-name="Heart Outline" d="M26.8,3.607A9.039,9.039,0,0,1,29.668,7.9a8.429,8.429,0,0,1,0,4.614,9,9,0,0,1-2.223,3.975L17.206,26.821a3.126,3.126,0,0,1-4.447,0L2.521,16.491A9,9,0,0,1,.3,12.516,8.073,8.073,0,0,1,.356,7.9,8.651,8.651,0,0,1,3.164,3.607a7.628,7.628,0,0,1,3.8-1.741,9.048,9.048,0,0,1,4.3.348,9.293,9.293,0,0,1,3.715,2.263A9.293,9.293,0,0,1,18.7,2.214,9.048,9.048,0,0,1,23,1.866,7.628,7.628,0,0,1,26.8,3.607ZM25.456,14.518a6.218,6.218,0,0,0,1.492-2.7,5.628,5.628,0,0,0-.029-3.163,5.73,5.73,0,0,0-1.931-2.9A5.437,5.437,0,0,0,20.98,4.536a5.971,5.971,0,0,0-3.949,1.857L14.983,8.424,12.935,6.393A5.971,5.971,0,0,0,8.986,4.536,5.437,5.437,0,0,0,4.978,5.754a5.73,5.73,0,0,0-1.931,2.9,5.628,5.628,0,0,0-.029,3.163,6.218,6.218,0,0,0,1.492,2.7l10.3,10.33q.176.232.351,0Z" transform="translate(0.01 -1.75)" fill="#f36"/>
</svg>
