<svg xmlns="http://www.w3.org/2000/svg" width="37.135" height="49.513" viewBox="0 0 37.135 49.513">
  <path id="Path_2183" data-name="Path 2183" d="M291.626,33.618l8.51-8.51a1.046,1.046,0,0,1,.774-.29,1.414,1.414,0,0,1,.87.29l5.319,5.415V44.449H282.342l.1-10.928,3.675-3.675a1.2,1.2,0,0,1,.87-.387,1.414,1.414,0,0,1,.87.29Zm9.284-4.932-9.284,9.284-4.642-4.642-1.547,1.547v6.479H304V31.781Zm-12.378-2.8a6.275,6.275,0,0,1-6.189-6.189,6.189,6.189,0,1,1,10.541,4.352A5.948,5.948,0,0,1,288.532,25.882Zm0-9.284a3.077,3.077,0,0,0-2.176,5.27,3.077,3.077,0,1,0,4.352-4.352A2.974,2.974,0,0,0,288.532,16.6Zm23.5-6a4.476,4.476,0,0,1,1.354,3.288V46a4.623,4.623,0,0,1-4.642,4.642H280.892A4.623,4.623,0,0,1,276.25,46V5.767A4.476,4.476,0,0,1,277.6,2.479a4.476,4.476,0,0,1,3.288-1.354H300.62a4.476,4.476,0,0,1,3.288,1.354ZM301.007,4.22V13.5h9.284a2.584,2.584,0,0,0-.484-.677L301.683,4.7A2.582,2.582,0,0,0,301.007,4.22ZM310.29,46V16.6H300.233a2.311,2.311,0,0,1-2.321-2.321V4.22h-17.02a1.49,1.49,0,0,0-1.547,1.547V46a1.49,1.49,0,0,0,1.547,1.547h27.851A1.49,1.49,0,0,0,310.29,46Z" transform="translate(-276.25 -1.125)" fill="#666"/>
</svg>
