<svg id="Facebook_Icon" data-name="Facebook Icon" xmlns="http://www.w3.org/2000/svg" width="68.999" height="68.998" viewBox="0 0 68.999 68.998">
  <path id="Facebook_Icon-2" data-name="Facebook Icon" d="M1158.5,9424a34.5,34.5,0,1,1,24.395-10.1A34.278,34.278,0,0,1,1158.5,9424Zm-4.918-33.613V9409.3h7.765v-18.918h6.03l.991-7.52h-7.021v-5.2a4.251,4.251,0,0,1,.661-2.643,3.856,3.856,0,0,1,3.057-.99h3.964v-6.691a41.11,41.11,0,0,0-5.783-.33,9.6,9.6,0,0,0-7.021,2.6,9.848,9.848,0,0,0-2.642,7.311v5.943h-6.36v7.52Z" transform="translate(-1124.001 -9355.001)" fill="#fff"/>
</svg>
