<svg xmlns="http://www.w3.org/2000/svg" width="19.875" height="26.5" viewBox="0 0 19.875 26.5">
  <path id="map-marker_icon" data-name="map-marker icon" d="M8.9,26.482A1.188,1.188,0,0,0,9.938,27a1.188,1.188,0,0,0,1.035-.518l3.468-4.969q2.588-3.727,3.416-5.021a14.576,14.576,0,0,0,1.6-3.131,9.422,9.422,0,0,0,.414-2.924,9.592,9.592,0,0,0-1.346-4.969,10.128,10.128,0,0,0-3.623-3.623A9.592,9.592,0,0,0,9.938.5,9.592,9.592,0,0,0,4.969,1.846,10.128,10.128,0,0,0,1.346,5.469,9.592,9.592,0,0,0,0,10.438a9.422,9.422,0,0,0,.414,2.924,14.576,14.576,0,0,0,1.6,3.131q.828,1.294,3.416,5.021Q7.557,24.516,8.9,26.482Zm1.035-11.9A4.153,4.153,0,0,1,5.8,10.438,4.153,4.153,0,0,1,9.938,6.3a4.153,4.153,0,0,1,4.141,4.141,4.153,4.153,0,0,1-4.141,4.141Z" transform="translate(0 -0.5)" fill="#fff"/>
</svg>
