<svg xmlns="http://www.w3.org/2000/svg" width="24.991" height="24.992" viewBox="0 0 24.991 24.992">
  <path id="phone_icon" data-name="phone icon" d="M.94,1.592a.926.926,0,0,0-.684.391,1.237,1.237,0,0,0-.244.733A22.292,22.292,0,0,0,3.089,14.145,22.771,22.771,0,0,0,11.246,22.3a22.29,22.29,0,0,0,11.429,3.077,1.237,1.237,0,0,0,.733-.244.926.926,0,0,0,.391-.684l1.172-5.08a1.1,1.1,0,0,0-.1-.781,1.052,1.052,0,0,0-.586-.537l-5.47-2.344a1.24,1.24,0,0,0-.733-.073.981.981,0,0,0-.635.415l-2.393,2.931a17.168,17.168,0,0,1-5.1-3.566,17.945,17.945,0,0,1-3.541-5.08L9.341,7.893a1.169,1.169,0,0,0,.391-.611,1.218,1.218,0,0,0-.049-.757L7.339,1.055A1.077,1.077,0,0,0,6.8.518,1.1,1.1,0,0,0,6.02.42Z" transform="translate(-0.012 -0.387)" fill="#fff"/>
</svg>
