<svg xmlns="http://www.w3.org/2000/svg" width="153.345" height="23.243" viewBox="0 0 153.345 23.243">
  <path id="Graham_Walker_Signature" data-name="Graham Walker Signature" d="M6.42,14.3a1.066,1.066,0,0,1,1.18-.44,7.941,7.941,0,0,0,3.14-.38c.62-.2,1.2-.5,1.8-.76l.98-.44c.42.54.46.68.14,1a4.181,4.181,0,0,1-.98.7,10.976,10.976,0,0,1-3.36,1.06l-1.12.18c-.04.24-.06.42-.08.6A5.443,5.443,0,0,1,4.2,20.54,3.118,3.118,0,0,1,.12,18.28a3.287,3.287,0,0,1,0-1.76A16.223,16.223,0,0,1,4.78,8.16,16.174,16.174,0,0,1,8.36,5.5a4.759,4.759,0,0,1,2.5-.64,1.522,1.522,0,0,1,1.66,1.86,7.353,7.353,0,0,1-.48,1.98,14.346,14.346,0,0,1-1.08,1.96.864.864,0,0,1-.42.34.644.644,0,0,1-.5-.08c-.06-.04-.04-.3.02-.4a3.292,3.292,0,0,1,.4-.62A5.825,5.825,0,0,0,11.5,7.12a1.776,1.776,0,0,0,.02-.46c-.08-1.12-.52-1.36-1.5-.84a6.353,6.353,0,0,0-.86.56A17.906,17.906,0,0,0,3.12,14.3a17.9,17.9,0,0,0-.74,2.88,2.682,2.682,0,0,0,.5,2.12c.24.36.44.42.8.22a14.8,14.8,0,0,0,1.3-.88,2.576,2.576,0,0,0,.32-.34C6.24,17.1,6.94,15.86,6.42,14.3Zm9.1-1.38c-1.22-.1-2.62.04-3.12-.46a1.316,1.316,0,0,1-.56-1.7,7.984,7.984,0,0,1,.38-.96,12.284,12.284,0,0,1,2.54-3.44,3.36,3.36,0,0,1,.96-.72,2.96,2.96,0,0,1,1.14-.32c.92-.04,1.34.5,1.08,1.38a4.544,4.544,0,0,1-.5,1.1c-.86,1.36-1.74,2.72-2.64,4.14.12.02.28.06.44.08a10.93,10.93,0,0,1,1.4.06c.82.16,1.1.64.8,1.42-.16.44-.4.86-.6,1.28-.16.36-.34.72-.48,1.1a8.411,8.411,0,0,0-.26.94,5.281,5.281,0,0,0,.72-.32c1.36-.84,3.74-2.42,5.08-3.28l1.92-1.18c.2-.12.44-.26.68-.02.04.3-.2.44-.38.58-.5.38-1,.74-1.48,1.14-1.02.84-2.02,1.66-4.08,3.24a5.156,5.156,0,0,1-2.4,1.36,3.152,3.152,0,0,1-1.92-.1,1.077,1.077,0,0,1-.7-1.36,8.376,8.376,0,0,1,1.18-2.62Zm-1.86-1.54a13.7,13.7,0,0,0,2.5-2.88,11.607,11.607,0,0,0,.66-1.32,1.5,1.5,0,0,0,.1-1.1c-.78.28-1.42.92-2.34,2.42A4.362,4.362,0,0,0,13.66,11.38Zm14.24,2.4a1.718,1.718,0,0,0,.68-.7,15.9,15.9,0,0,1,1.04-1.46c.44-.54,1-.52,1.58,0-.14.28-.28.6-.44.92a18.07,18.07,0,0,0-1.54,3.56,2.67,2.67,0,0,0-.14,1.28c.18-.1.32-.12.44-.2a1.9,1.9,0,0,0,.4-.3c2.32-1.94,4.2-3.44,6.52-5.4.22-.16.42-.32.78-.6-.06.3-.06.44-.12.5a7.6,7.6,0,0,1-.66.74c-.68.66-.94.82-1.62,1.5-.7.7-1.38,1.44-2.06,2.18a15.243,15.243,0,0,1-2.24,2,3.013,3.013,0,0,1-1.84.54,1.391,1.391,0,0,1-1.48-1.46,4.376,4.376,0,0,1,0-.52c-.26.26-.38.42-.54.56a21.087,21.087,0,0,1-1.6,1.4,3.641,3.641,0,0,1-2.94.64,1.308,1.308,0,0,1-1.24-1.64,3.038,3.038,0,0,1,.24-1.02A12.724,12.724,0,0,1,24,12.02a4.885,4.885,0,0,1,2.48-1.34,3.026,3.026,0,0,1,1.04,0,.994.994,0,0,1,.92,1.08,7.678,7.678,0,0,1-.22,1.18A5.785,5.785,0,0,1,27.9,13.78Zm-4.8,4.1c.2-.08.36-.16.54-.24a8.115,8.115,0,0,0,3.84-5.02,3.119,3.119,0,0,0,.06-.86.593.593,0,0,0-.42-.58,2.667,2.667,0,0,0-1.3.74,10.555,10.555,0,0,0-2.84,5A1.059,1.059,0,0,0,23.1,17.88Zm10.68.32a4.8,4.8,0,0,0,.52-.36c.92-.72,1.8-1.46,2.72-2.14a14.162,14.162,0,0,1,1.76-1.06,2.288,2.288,0,0,1,.78-.28.93.93,0,0,1,1.18.98c-.02.74-.14,1.48-.22,2.22l-.14,1.18a6.448,6.448,0,0,0,.66-.48c1.82-1.8,3.64-3.6,5.44-5.4.46-.46.9-.94,1.36-1.4a.925.925,0,0,1,.9-.38,3.651,3.651,0,0,1-.2.56c-.46.6-.9,1.18-1.38,1.78a45.889,45.889,0,0,1-4.12,4.7,15.21,15.21,0,0,1-1.52,1.24,2.34,2.34,0,0,1-1.58.46c-.78-.06-1.16-.42-1.12-1.2a18.648,18.648,0,0,1,.3-2.12c.06-.4.18-.78.3-1.3a3.984,3.984,0,0,0-.58.28c-.64.56-1.28,1.1-1.9,1.66-.68.6-1.3,1.26-1.98,1.84a4.649,4.649,0,0,1-1.34.82,2.051,2.051,0,0,1-1.1.04.76.76,0,0,1-.74-.9,8.2,8.2,0,0,1,.26-1.56A20.21,20.21,0,0,1,34,12.74,54.654,54.654,0,0,1,39.22,5a14.213,14.213,0,0,1,1.9-1.9,3.467,3.467,0,0,1,1.32-.68c1-.26,1.62.32,1.44,1.32A6.069,6.069,0,0,1,43.3,5.5,25.5,25.5,0,0,1,37,13.42c-.46.36-.98.64-1.48.98-.18.14-.44.28-.52.48-.46,1.02-.88,2.06-1.3,3.1A1.019,1.019,0,0,0,33.78,18.2ZM42.7,3.18a9.573,9.573,0,0,0-.9.88,15.238,15.238,0,0,0-1.32,1.68c-1.36,2.16-2.7,4.32-4.04,6.5a2.589,2.589,0,0,0-.12.4,1.532,1.532,0,0,0,.34-.26,39.778,39.778,0,0,0,5.1-6.04,13.013,13.013,0,0,0,.82-1.46A2.3,2.3,0,0,0,42.7,3.18Zm8.2,10.6a1.718,1.718,0,0,0,.68-.7,15.906,15.906,0,0,1,1.04-1.46c.44-.54,1-.52,1.58,0-.14.28-.28.6-.44.92a18.07,18.07,0,0,0-1.54,3.56,2.67,2.67,0,0,0-.14,1.28c.18-.1.32-.12.44-.2a1.9,1.9,0,0,0,.4-.3c2.32-1.94,4.2-3.44,6.52-5.4.22-.16.42-.32.78-.6-.06.3-.06.44-.12.5a7.6,7.6,0,0,1-.66.74c-.68.66-.94.82-1.62,1.5-.7.7-1.38,1.44-2.06,2.18a15.243,15.243,0,0,1-2.24,2,3.013,3.013,0,0,1-1.84.54,1.391,1.391,0,0,1-1.48-1.46,4.376,4.376,0,0,1,0-.52c-.26.26-.38.42-.54.56a21.088,21.088,0,0,1-1.6,1.4,3.641,3.641,0,0,1-2.94.64,1.308,1.308,0,0,1-1.24-1.64,3.038,3.038,0,0,1,.24-1.02A12.724,12.724,0,0,1,47,12.02a4.885,4.885,0,0,1,2.48-1.34,3.026,3.026,0,0,1,1.04,0,.994.994,0,0,1,.92,1.08,7.678,7.678,0,0,1-.22,1.18A5.785,5.785,0,0,1,50.9,13.78Zm-4.8,4.1c.2-.08.36-.16.54-.24a8.115,8.115,0,0,0,3.84-5.02,3.119,3.119,0,0,0,.06-.86.593.593,0,0,0-.42-.58,2.667,2.667,0,0,0-1.3.74,10.555,10.555,0,0,0-2.84,5A1.059,1.059,0,0,0,46.1,17.88Zm31.32-7.06a.4.4,0,0,0-.32-.14,2.175,2.175,0,0,0-.66.3c-.54.38-1.02.82-1.58,1.16a26.714,26.714,0,0,1-2.48,1.32c-.28.14-.56.4-1,.28-.02-.4-.02-.8-.08-1.2a1.008,1.008,0,0,0-1.1-1.02,2.506,2.506,0,0,0-1.08.24c-.8.42-1.56.9-2.32,1.38-.38.26-.74.54-1.12.82a1,1,0,0,0-.16-.14l.12-.54a6.816,6.816,0,0,0,.1-1.1.8.8,0,0,0-.84-.9,1.986,1.986,0,0,0-1.08.22,15.672,15.672,0,0,0-2.18,1.42c-.84.66-1.58,1.42-2.36,2.12-.14.14-.3.24-.62.5.14-.38.18-.56.26-.72.3-.72.62-1.42.92-2.14.2-.48.44-.96.62-1.46.04-.16.06-.44-.04-.52a.871.871,0,0,0-.6-.14c-.36.04-.56.36-.76.64a16.8,16.8,0,0,0-2.36,4.76,3.484,3.484,0,0,0-.1.44.713.713,0,0,0,.56.92,1.613,1.613,0,0,0,1.58-.3c.36-.3.7-.62,1.04-.96.92-.92,1.82-1.86,2.74-2.8a6.025,6.025,0,0,1,1.86-1.3c-.06.36-.08.6-.14.84-.12.44-.3.88-.4,1.34-.2.86.12,1.26.98,1.24a2.588,2.588,0,0,0,.9-.22,10.271,10.271,0,0,0,1.1-.7c.72-.5,1.42-1.02,2.14-1.5a4.882,4.882,0,0,1,.64-.3c0,.46-.02.82,0,1.2a1.179,1.179,0,0,0,1,1.18,2.584,2.584,0,0,0,1.82-.18l4.4-3.08a4.26,4.26,0,0,0,.58-.62A.406.406,0,0,0,77.42,10.82ZM98.58-2.1c.22-.12.32-.24.46-.26a1.438,1.438,0,0,1,1.32.3,3.3,3.3,0,0,1,.78.8,11.567,11.567,0,0,1,2.02,7.52,14.709,14.709,0,0,1-1.38,4.92,21.281,21.281,0,0,1-3.7,5.6,11.255,11.255,0,0,1-2.5,2.06,4.336,4.336,0,0,1-2.98.56,1.61,1.61,0,0,1-1.56-1.84,8.065,8.065,0,0,1,.3-1.54,8.275,8.275,0,0,0,.3-1.12l-.32.32L88.5,18.6a4.867,4.867,0,0,1-.82.76,3.176,3.176,0,0,1-1.08.52,1.454,1.454,0,0,1-1.84-1.12,3.664,3.664,0,0,1,0-1.86,10.31,10.31,0,0,1,.46-1.32,41.42,41.42,0,0,1,5-8.4,8.519,8.519,0,0,1,.7-.76,1.5,1.5,0,0,1,.48-.3.609.609,0,0,1,.68.12c.18.2.08.42-.02.62-.76,1.36-1.52,2.72-2.26,4.08a44.876,44.876,0,0,0-2.48,4.5,9.809,9.809,0,0,0-.84,2.48c-.02.2,0,.4,0,.68a1.672,1.672,0,0,0,.9-.6,64.679,64.679,0,0,0,5.32-5.9c.62-.82,1.24-1.64,1.88-2.46a2.07,2.07,0,0,1,.54-.48.549.549,0,0,1,.68.14.6.6,0,0,1,.06.52c-.28.74-.58,1.44-.86,2.18-.54,1.38-1.1,2.78-1.6,4.18a5.883,5.883,0,0,0-.24,1.18,1.131,1.131,0,0,0,.34,1,6.18,6.18,0,0,0,.88-.48,23.28,23.28,0,0,0,2.02-1.64,21.37,21.37,0,0,0,4.2-5.36,14.018,14.018,0,0,0,1.6-5.14,8.733,8.733,0,0,0-.16-2.5,12.54,12.54,0,0,0-1.28-3.8l-.3-.48C99.9-1.92,99.68-2.04,98.58-2.1Zm9.14,15.88a1.718,1.718,0,0,0,.68-.7,15.906,15.906,0,0,1,1.04-1.46c.44-.54,1-.52,1.58,0-.14.28-.28.6-.44.92a18.071,18.071,0,0,0-1.54,3.56,2.67,2.67,0,0,0-.14,1.28c.18-.1.32-.12.44-.2a1.9,1.9,0,0,0,.4-.3c2.32-1.94,4.2-3.44,6.52-5.4.22-.16.42-.32.78-.6-.06.3-.06.44-.12.5a7.6,7.6,0,0,1-.66.74c-.68.66-.94.82-1.62,1.5-.7.7-1.38,1.44-2.06,2.18a15.243,15.243,0,0,1-2.24,2,3.013,3.013,0,0,1-1.84.54,1.391,1.391,0,0,1-1.48-1.46,4.375,4.375,0,0,1,0-.52c-.26.26-.38.42-.54.56a21.087,21.087,0,0,1-1.6,1.4,3.641,3.641,0,0,1-2.94.64,1.308,1.308,0,0,1-1.24-1.64,3.038,3.038,0,0,1,.24-1.02,12.724,12.724,0,0,1,2.88-4.28,4.885,4.885,0,0,1,2.48-1.34,3.026,3.026,0,0,1,1.04,0,.994.994,0,0,1,.92,1.08,7.677,7.677,0,0,1-.22,1.18A5.785,5.785,0,0,1,107.72,13.78Zm-4.8,4.1c.2-.08.36-.16.54-.24a8.115,8.115,0,0,0,3.84-5.02,3.119,3.119,0,0,0,.06-.86.593.593,0,0,0-.42-.58,2.667,2.667,0,0,0-1.3.74,10.555,10.555,0,0,0-2.84,5A1.059,1.059,0,0,0,102.92,17.88Zm12.94-.74a2.512,2.512,0,0,0,1.38-.5c.78-.54,2.82-2.38,3.54-2.96.74-.58,1.4-1.24,2.1-1.86.26-.2.5-.48.98-.3a2.066,2.066,0,0,1-.32.56c-1.18,1.2-3.62,3.72-4.86,4.86a4.587,4.587,0,0,1-3.5,1.26,1.674,1.674,0,0,1-1.78-1.76,5.393,5.393,0,0,1,.3-2.02,20.833,20.833,0,0,1,2.38-4.94,42.818,42.818,0,0,1,3.3-4.52,21.621,21.621,0,0,1,3.16-3.04A5.029,5.029,0,0,1,124.6.88c1.44-.26,2.12.4,1.84,1.82a3.157,3.157,0,0,1-.48,1.2,12.842,12.842,0,0,1-6.68,5.28,2.18,2.18,0,0,0-1.32,1.06,24,24,0,0,0-2.04,4.28c-.14.44-.22.9-.32,1.36A1.776,1.776,0,0,0,115.86,17.14Zm3.42-8.82a14.463,14.463,0,0,0,5.26-3.94,3.959,3.959,0,0,0,.78-1.78,1.093,1.093,0,0,0-.14-.96C123.76,2.18,120.92,5.38,119.28,8.32Zm9.38-5.56c-.48,1.2-1.16,2.22-1.7,3.28s-1.1,2.1-1.66,3.16c.28.16.36-.08.48-.18.78-.72,1.52-1.46,2.32-2.18a5.194,5.194,0,0,1,.84-.58,2.685,2.685,0,0,1,.6-.24.982.982,0,0,1,1.04.16c.3.32.16.7.02,1.06a8.761,8.761,0,0,1-2.62,3.46c-.42.32-.88.6-1.3.92-.24.16-.48.34-.74.54a2.439,2.439,0,0,1,.86,2.32c0,.92-.04,1.84-.06,2.78.34.08.54-.16.76-.3,2.52-1.66,4.94-3.46,7.32-5.34a2.02,2.02,0,0,1,1.14-.58c.28.18.2.44.02.64a12.942,12.942,0,0,1-1.04,1.06c-1.3,1.1-2.62,2.2-3.94,3.28-.8.66-1.6,1.3-2.42,1.92a3.5,3.5,0,0,1-2.26.7c-1.14-.04-1.64-.58-1.56-1.72.06-.94.1-1.86.14-2.8a3.067,3.067,0,0,0-.04-.74c-.06-.44-.1-.48-.68-.92l-.56.72a43.264,43.264,0,0,0-2.72,4.68c-.4.76-.8,1.54-1.24,2.3s-.84.84-1.72.4a1.38,1.38,0,0,1,.24-1.04c.66-1.34,1.3-2.7,2-4.02,1.64-3,3.28-6,4.96-9,.58-1.02,1.24-2,1.88-3a4.2,4.2,0,0,1,.52-.66A.811.811,0,0,1,128.66,2.76Zm-3.98,9.12a9.162,9.162,0,0,0,4.46-4.72A20.843,20.843,0,0,0,124.68,11.88Zm19.04-.56a1.251,1.251,0,0,1-.58.88c-2.48,2.1-2.74,2.52-4.18,3.6a36.066,36.066,0,0,1-3.04,2.14,4.9,4.9,0,0,1-2.58.8,4.52,4.52,0,0,1-1-.16,1.024,1.024,0,0,1-.8-1,5.369,5.369,0,0,1,.16-1.4,11.066,11.066,0,0,1,3.62-5.12,2.4,2.4,0,0,1,1.72-.62c.9.04,1.18.44.78,1.26a5.607,5.607,0,0,1-1.68,2.22,11.623,11.623,0,0,1-1.56,1.02,1.126,1.126,0,0,0-.62.76,2.435,2.435,0,0,0-.08,1.68.96.96,0,0,0,.92-.2,25.813,25.813,0,0,0,2.22-1.4c2.34-1.72,1.42-.82,3.78-2.56.68-.5,1.38-.96,2.06-1.44A7.775,7.775,0,0,1,143.72,11.32Zm-6.64-.36a2.8,2.8,0,0,0-1.3,1.24c-.72.92-.78,1.06-.88,1.66a4.565,4.565,0,0,0,2.04-1.94A.893.893,0,0,0,137.08,10.96Zm7.28,1.96c-1.22-.1-2.62.04-3.12-.46a1.316,1.316,0,0,1-.56-1.7,7.982,7.982,0,0,1,.38-.96,12.284,12.284,0,0,1,2.54-3.44,3.36,3.36,0,0,1,.96-.72,2.96,2.96,0,0,1,1.14-.32c.92-.04,1.34.5,1.08,1.38a4.543,4.543,0,0,1-.5,1.1c-.86,1.36-1.74,2.72-2.64,4.14.12.02.28.06.44.08a10.93,10.93,0,0,1,1.4.06c.82.16,1.1.64.8,1.42-.16.44-.4.86-.6,1.28-.16.36-.34.72-.48,1.1a8.415,8.415,0,0,0-.26.94,5.282,5.282,0,0,0,.72-.32c1.36-.84,3.74-2.42,5.08-3.28l1.92-1.18c.2-.12.44-.26.68-.02.04.3-.2.44-.38.58-.5.38-1,.74-1.48,1.14-1.02.84-2.02,1.66-4.08,3.24a5.156,5.156,0,0,1-2.4,1.36,3.152,3.152,0,0,1-1.92-.1,1.077,1.077,0,0,1-.7-1.36,8.376,8.376,0,0,1,1.18-2.62Zm-1.86-1.54A13.7,13.7,0,0,0,145,8.5a11.607,11.607,0,0,0,.66-1.32,1.5,1.5,0,0,0,.1-1.1c-.78.28-1.42.92-2.34,2.42A4.362,4.362,0,0,0,142.5,11.38Z" transform="translate(0 2.415)" fill="#fff"/>
</svg>
