<svg xmlns="http://www.w3.org/2000/svg" width="30" height="26" viewBox="0 0 30 26">
  <path id="Heart_Filled" data-name="Heart Filled" d="M26.8,3.607A9.039,9.039,0,0,1,29.668,7.9a8.429,8.429,0,0,1,0,4.614,9,9,0,0,1-2.223,3.975L17.206,26.821a3.126,3.126,0,0,1-4.447,0L2.521,16.491A9,9,0,0,1,.3,12.516,8.073,8.073,0,0,1,.356,7.9,8.651,8.651,0,0,1,3.164,3.607a7.628,7.628,0,0,1,3.8-1.741,9.048,9.048,0,0,1,4.3.348,9.293,9.293,0,0,1,3.715,2.263A9.293,9.293,0,0,1,18.7,2.214,9.048,9.048,0,0,1,23,1.866,7.628,7.628,0,0,1,26.8,3.607Z" transform="translate(0.01 -1.75)" fill="#f36"/>
</svg>
